<mxfile host="app.diagrams.net" modified="2020-12-05T16:42:14.271Z" agent="5.0 (Macintosh; Intel Mac OS X 10_15_7) AppleWebKit/537.36 (KHTML, like Gecko) Chrome/86.0.4240.198 Safari/537.36" etag="XanHbwLQg7K8lcpERuzT" version="13.10.9" type="github">
  <diagram id="VkGjCTy9QtaiPsq0g4Sv" name="Page-1">
    <mxGraphModel dx="1351" dy="876" grid="1" gridSize="10" guides="1" tooltips="1" connect="1" arrows="1" fold="1" page="1" pageScale="1" pageWidth="827" pageHeight="1169" math="0" shadow="0">
      <root>
        <mxCell id="0" />
        <mxCell id="1" parent="0" />
        <mxCell id="iqTfHni99q5GyG35R7go-7" style="edgeStyle=orthogonalEdgeStyle;rounded=0;orthogonalLoop=1;jettySize=auto;html=1;exitX=1;exitY=0.5;exitDx=0;exitDy=0;entryX=0;entryY=0.5;entryDx=0;entryDy=0;" edge="1" parent="1" source="iqTfHni99q5GyG35R7go-1" target="iqTfHni99q5GyG35R7go-2">
          <mxGeometry relative="1" as="geometry" />
        </mxCell>
        <mxCell id="iqTfHni99q5GyG35R7go-1" value="Splash Screen" style="rounded=1;whiteSpace=wrap;html=1;" vertex="1" parent="1">
          <mxGeometry y="120" width="120" height="60" as="geometry" />
        </mxCell>
        <mxCell id="iqTfHni99q5GyG35R7go-2" value="First decision" style="rounded=1;whiteSpace=wrap;html=1;" vertex="1" parent="1">
          <mxGeometry x="140" y="120" width="120" height="60" as="geometry" />
        </mxCell>
        <mxCell id="iqTfHni99q5GyG35R7go-19" style="edgeStyle=orthogonalEdgeStyle;rounded=0;orthogonalLoop=1;jettySize=auto;html=1;exitX=0.5;exitY=1;exitDx=0;exitDy=0;entryX=0.503;entryY=-0.023;entryDx=0;entryDy=0;entryPerimeter=0;" edge="1" parent="1" source="iqTfHni99q5GyG35R7go-3" target="iqTfHni99q5GyG35R7go-11">
          <mxGeometry relative="1" as="geometry" />
        </mxCell>
        <mxCell id="iqTfHni99q5GyG35R7go-3" value="1-click-decision&lt;br&gt;&lt;br&gt;Filter decision" style="rounded=1;whiteSpace=wrap;html=1;" vertex="1" parent="1">
          <mxGeometry x="280" y="207" width="120" height="60" as="geometry" />
        </mxCell>
        <mxCell id="iqTfHni99q5GyG35R7go-23" value="" style="edgeStyle=orthogonalEdgeStyle;rounded=0;orthogonalLoop=1;jettySize=auto;html=1;" edge="1" parent="1" source="iqTfHni99q5GyG35R7go-4" target="iqTfHni99q5GyG35R7go-5">
          <mxGeometry relative="1" as="geometry" />
        </mxCell>
        <mxCell id="iqTfHni99q5GyG35R7go-4" value="Random Outcome" style="rounded=1;whiteSpace=wrap;html=1;" vertex="1" parent="1">
          <mxGeometry x="320" y="120" width="120" height="60" as="geometry" />
        </mxCell>
        <mxCell id="iqTfHni99q5GyG35R7go-5" value="Random Outcome Detail" style="rounded=1;whiteSpace=wrap;html=1;" vertex="1" parent="1">
          <mxGeometry x="460" y="120" width="120" height="60" as="geometry" />
        </mxCell>
        <mxCell id="iqTfHni99q5GyG35R7go-21" value="" style="edgeStyle=orthogonalEdgeStyle;rounded=0;orthogonalLoop=1;jettySize=auto;html=1;entryX=0.5;entryY=0;entryDx=0;entryDy=0;" edge="1" parent="1" source="iqTfHni99q5GyG35R7go-11" target="iqTfHni99q5GyG35R7go-12">
          <mxGeometry relative="1" as="geometry" />
        </mxCell>
        <mxCell id="iqTfHni99q5GyG35R7go-11" value="Filter" style="rounded=1;whiteSpace=wrap;html=1;" vertex="1" parent="1">
          <mxGeometry x="280" y="287" width="120" height="60" as="geometry" />
        </mxCell>
        <mxCell id="iqTfHni99q5GyG35R7go-22" value="" style="edgeStyle=orthogonalEdgeStyle;rounded=0;orthogonalLoop=1;jettySize=auto;html=1;" edge="1" parent="1" source="iqTfHni99q5GyG35R7go-12" target="iqTfHni99q5GyG35R7go-13">
          <mxGeometry relative="1" as="geometry" />
        </mxCell>
        <mxCell id="iqTfHni99q5GyG35R7go-12" value="Outcome" style="rounded=1;whiteSpace=wrap;html=1;" vertex="1" parent="1">
          <mxGeometry x="280" y="367" width="120" height="60" as="geometry" />
        </mxCell>
        <mxCell id="iqTfHni99q5GyG35R7go-13" value="Outcome Detail" style="rounded=1;whiteSpace=wrap;html=1;" vertex="1" parent="1">
          <mxGeometry x="280" y="447" width="120" height="60" as="geometry" />
        </mxCell>
        <mxCell id="iqTfHni99q5GyG35R7go-17" value="" style="endArrow=classic;html=1;" edge="1" parent="1" source="iqTfHni99q5GyG35R7go-3">
          <mxGeometry width="50" height="50" relative="1" as="geometry">
            <mxPoint x="380" y="230" as="sourcePoint" />
            <mxPoint x="340" y="180" as="targetPoint" />
            <Array as="points" />
          </mxGeometry>
        </mxCell>
        <mxCell id="iqTfHni99q5GyG35R7go-20" value="" style="endArrow=classic;html=1;exitX=1;exitY=0.5;exitDx=0;exitDy=0;entryX=0.446;entryY=-0.029;entryDx=0;entryDy=0;entryPerimeter=0;" edge="1" parent="1" source="iqTfHni99q5GyG35R7go-2" target="iqTfHni99q5GyG35R7go-3">
          <mxGeometry width="50" height="50" relative="1" as="geometry">
            <mxPoint x="270" y="160" as="sourcePoint" />
            <mxPoint x="320" y="110" as="targetPoint" />
          </mxGeometry>
        </mxCell>
        <mxCell id="iqTfHni99q5GyG35R7go-24" value="FILTER CHOICES" style="shape=table;startSize=30;container=1;collapsible=1;childLayout=tableLayout;fixedRows=1;rowLines=0;fontStyle=1;align=center;resizeLast=1;" vertex="1" parent="1">
          <mxGeometry x="520" y="230" width="180.00000000000023" height="300" as="geometry" />
        </mxCell>
        <mxCell id="iqTfHni99q5GyG35R7go-25" value="" style="shape=partialRectangle;collapsible=0;dropTarget=0;pointerEvents=0;fillColor=none;top=0;left=0;bottom=1;right=0;points=[[0,0.5],[1,0.5]];portConstraint=eastwest;" vertex="1" parent="iqTfHni99q5GyG35R7go-24">
          <mxGeometry y="30" width="180.00000000000023" height="60" as="geometry" />
        </mxCell>
        <mxCell id="iqTfHni99q5GyG35R7go-26" value="PK" style="shape=partialRectangle;connectable=0;fillColor=none;top=0;left=0;bottom=0;right=0;fontStyle=1;overflow=hidden;" vertex="1" parent="iqTfHni99q5GyG35R7go-25">
          <mxGeometry width="30" height="60" as="geometry" />
        </mxCell>
        <mxCell id="iqTfHni99q5GyG35R7go-27" value="RestaurantID" style="shape=partialRectangle;connectable=0;fillColor=none;top=0;left=0;bottom=0;right=0;align=left;spacingLeft=6;fontStyle=5;overflow=hidden;" vertex="1" parent="iqTfHni99q5GyG35R7go-25">
          <mxGeometry x="30" width="150.00000000000023" height="60" as="geometry" />
        </mxCell>
        <mxCell id="iqTfHni99q5GyG35R7go-28" value="" style="shape=partialRectangle;collapsible=0;dropTarget=0;pointerEvents=0;fillColor=none;top=0;left=0;bottom=0;right=0;points=[[0,0.5],[1,0.5]];portConstraint=eastwest;" vertex="1" parent="iqTfHni99q5GyG35R7go-24">
          <mxGeometry y="90" width="180.00000000000023" height="50" as="geometry" />
        </mxCell>
        <mxCell id="iqTfHni99q5GyG35R7go-29" value="" style="shape=partialRectangle;connectable=0;fillColor=none;top=0;left=0;bottom=0;right=0;editable=1;overflow=hidden;" vertex="1" parent="iqTfHni99q5GyG35R7go-28">
          <mxGeometry width="30" height="50" as="geometry" />
        </mxCell>
        <mxCell id="iqTfHni99q5GyG35R7go-30" value="Location" style="shape=partialRectangle;connectable=0;fillColor=none;top=0;left=0;bottom=0;right=0;align=left;spacingLeft=6;overflow=hidden;" vertex="1" parent="iqTfHni99q5GyG35R7go-28">
          <mxGeometry x="30" width="150.00000000000023" height="50" as="geometry" />
        </mxCell>
        <mxCell id="iqTfHni99q5GyG35R7go-31" value="" style="shape=partialRectangle;collapsible=0;dropTarget=0;pointerEvents=0;fillColor=none;top=0;left=0;bottom=0;right=0;points=[[0,0.5],[1,0.5]];portConstraint=eastwest;" vertex="1" parent="iqTfHni99q5GyG35R7go-24">
          <mxGeometry y="140" width="180.00000000000023" height="50" as="geometry" />
        </mxCell>
        <mxCell id="iqTfHni99q5GyG35R7go-32" value="" style="shape=partialRectangle;connectable=0;fillColor=none;top=0;left=0;bottom=0;right=0;editable=1;overflow=hidden;" vertex="1" parent="iqTfHni99q5GyG35R7go-31">
          <mxGeometry width="30" height="50" as="geometry" />
        </mxCell>
        <mxCell id="iqTfHni99q5GyG35R7go-33" value="CuisineÂ " style="shape=partialRectangle;connectable=0;fillColor=none;top=0;left=0;bottom=0;right=0;align=left;spacingLeft=6;overflow=hidden;" vertex="1" parent="iqTfHni99q5GyG35R7go-31">
          <mxGeometry x="30" width="150.00000000000023" height="50" as="geometry" />
        </mxCell>
        <mxCell id="iqTfHni99q5GyG35R7go-34" value="" style="shape=partialRectangle;collapsible=0;dropTarget=0;pointerEvents=0;fillColor=none;top=0;left=0;bottom=0;right=0;points=[[0,0.5],[1,0.5]];portConstraint=eastwest;" vertex="1" parent="iqTfHni99q5GyG35R7go-24">
          <mxGeometry y="190" width="180.00000000000023" height="50" as="geometry" />
        </mxCell>
        <mxCell id="iqTfHni99q5GyG35R7go-35" value="" style="shape=partialRectangle;connectable=0;fillColor=none;top=0;left=0;bottom=0;right=0;editable=1;overflow=hidden;" vertex="1" parent="iqTfHni99q5GyG35R7go-34">
          <mxGeometry width="30" height="50" as="geometry" />
        </mxCell>
        <mxCell id="iqTfHni99q5GyG35R7go-36" value="Action" style="shape=partialRectangle;connectable=0;fillColor=none;top=0;left=0;bottom=0;right=0;align=left;spacingLeft=6;overflow=hidden;" vertex="1" parent="iqTfHni99q5GyG35R7go-34">
          <mxGeometry x="30" width="150.00000000000023" height="50" as="geometry" />
        </mxCell>
        <mxCell id="iqTfHni99q5GyG35R7go-38" value="" style="shape=partialRectangle;collapsible=0;dropTarget=0;pointerEvents=0;fillColor=none;top=0;left=0;bottom=0;right=0;points=[[0,0.5],[1,0.5]];portConstraint=eastwest;" vertex="1" parent="iqTfHni99q5GyG35R7go-24">
          <mxGeometry y="240" width="180.00000000000023" height="50" as="geometry" />
        </mxCell>
        <mxCell id="iqTfHni99q5GyG35R7go-39" value="" style="shape=partialRectangle;connectable=0;fillColor=none;top=0;left=0;bottom=0;right=0;editable=1;overflow=hidden;" vertex="1" parent="iqTfHni99q5GyG35R7go-38">
          <mxGeometry width="30" height="50" as="geometry" />
        </mxCell>
        <mxCell id="iqTfHni99q5GyG35R7go-40" value="Diet" style="shape=partialRectangle;connectable=0;fillColor=none;top=0;left=0;bottom=0;right=0;align=left;spacingLeft=6;overflow=hidden;" vertex="1" parent="iqTfHni99q5GyG35R7go-38">
          <mxGeometry x="30" width="150.00000000000023" height="50" as="geometry" />
        </mxCell>
        <mxCell id="iqTfHni99q5GyG35R7go-41" value="Cuisine" style="shape=table;startSize=30;container=1;collapsible=1;childLayout=tableLayout;fixedRows=1;rowLines=0;fontStyle=1;align=center;resizeLast=1;" vertex="1" parent="1">
          <mxGeometry x="280" y="600" width="180" height="220" as="geometry" />
        </mxCell>
        <mxCell id="iqTfHni99q5GyG35R7go-42" value="" style="shape=partialRectangle;collapsible=0;dropTarget=0;pointerEvents=0;fillColor=none;top=0;left=0;bottom=1;right=0;points=[[0,0.5],[1,0.5]];portConstraint=eastwest;" vertex="1" parent="iqTfHni99q5GyG35R7go-41">
          <mxGeometry y="30" width="180" height="30" as="geometry" />
        </mxCell>
        <mxCell id="iqTfHni99q5GyG35R7go-43" value="PK" style="shape=partialRectangle;connectable=0;fillColor=none;top=0;left=0;bottom=0;right=0;fontStyle=1;overflow=hidden;" vertex="1" parent="iqTfHni99q5GyG35R7go-42">
          <mxGeometry width="30" height="30" as="geometry" />
        </mxCell>
        <mxCell id="iqTfHni99q5GyG35R7go-44" value="CuisineID" style="shape=partialRectangle;connectable=0;fillColor=none;top=0;left=0;bottom=0;right=0;align=left;spacingLeft=6;fontStyle=5;overflow=hidden;" vertex="1" parent="iqTfHni99q5GyG35R7go-42">
          <mxGeometry x="30" width="150" height="30" as="geometry" />
        </mxCell>
        <mxCell id="iqTfHni99q5GyG35R7go-45" value="" style="shape=partialRectangle;collapsible=0;dropTarget=0;pointerEvents=0;fillColor=none;top=0;left=0;bottom=0;right=0;points=[[0,0.5],[1,0.5]];portConstraint=eastwest;" vertex="1" parent="iqTfHni99q5GyG35R7go-41">
          <mxGeometry y="60" width="180" height="30" as="geometry" />
        </mxCell>
        <mxCell id="iqTfHni99q5GyG35R7go-46" value="" style="shape=partialRectangle;connectable=0;fillColor=none;top=0;left=0;bottom=0;right=0;editable=1;overflow=hidden;" vertex="1" parent="iqTfHni99q5GyG35R7go-45">
          <mxGeometry width="30" height="30" as="geometry" />
        </mxCell>
        <mxCell id="iqTfHni99q5GyG35R7go-47" value="Asiatisch" style="shape=partialRectangle;connectable=0;fillColor=none;top=0;left=0;bottom=0;right=0;align=left;spacingLeft=6;overflow=hidden;" vertex="1" parent="iqTfHni99q5GyG35R7go-45">
          <mxGeometry x="30" width="150" height="30" as="geometry" />
        </mxCell>
        <mxCell id="iqTfHni99q5GyG35R7go-48" value="" style="shape=partialRectangle;collapsible=0;dropTarget=0;pointerEvents=0;fillColor=none;top=0;left=0;bottom=0;right=0;points=[[0,0.5],[1,0.5]];portConstraint=eastwest;" vertex="1" parent="iqTfHni99q5GyG35R7go-41">
          <mxGeometry y="90" width="180" height="30" as="geometry" />
        </mxCell>
        <mxCell id="iqTfHni99q5GyG35R7go-49" value="" style="shape=partialRectangle;connectable=0;fillColor=none;top=0;left=0;bottom=0;right=0;editable=1;overflow=hidden;" vertex="1" parent="iqTfHni99q5GyG35R7go-48">
          <mxGeometry width="30" height="30" as="geometry" />
        </mxCell>
        <mxCell id="iqTfHni99q5GyG35R7go-50" value="Amerikanisch" style="shape=partialRectangle;connectable=0;fillColor=none;top=0;left=0;bottom=0;right=0;align=left;spacingLeft=6;overflow=hidden;" vertex="1" parent="iqTfHni99q5GyG35R7go-48">
          <mxGeometry x="30" width="150" height="30" as="geometry" />
        </mxCell>
        <mxCell id="iqTfHni99q5GyG35R7go-51" value="" style="shape=partialRectangle;collapsible=0;dropTarget=0;pointerEvents=0;fillColor=none;top=0;left=0;bottom=0;right=0;points=[[0,0.5],[1,0.5]];portConstraint=eastwest;" vertex="1" parent="iqTfHni99q5GyG35R7go-41">
          <mxGeometry y="120" width="180" height="30" as="geometry" />
        </mxCell>
        <mxCell id="iqTfHni99q5GyG35R7go-52" value="" style="shape=partialRectangle;connectable=0;fillColor=none;top=0;left=0;bottom=0;right=0;editable=1;overflow=hidden;" vertex="1" parent="iqTfHni99q5GyG35R7go-51">
          <mxGeometry width="30" height="30" as="geometry" />
        </mxCell>
        <mxCell id="iqTfHni99q5GyG35R7go-53" value="Deutsch" style="shape=partialRectangle;connectable=0;fillColor=none;top=0;left=0;bottom=0;right=0;align=left;spacingLeft=6;overflow=hidden;" vertex="1" parent="iqTfHni99q5GyG35R7go-51">
          <mxGeometry x="30" width="150" height="30" as="geometry" />
        </mxCell>
        <mxCell id="iqTfHni99q5GyG35R7go-70" value="" style="shape=partialRectangle;collapsible=0;dropTarget=0;pointerEvents=0;fillColor=none;top=0;left=0;bottom=0;right=0;points=[[0,0.5],[1,0.5]];portConstraint=eastwest;" vertex="1" parent="iqTfHni99q5GyG35R7go-41">
          <mxGeometry y="150" width="180" height="30" as="geometry" />
        </mxCell>
        <mxCell id="iqTfHni99q5GyG35R7go-71" value="" style="shape=partialRectangle;connectable=0;fillColor=none;top=0;left=0;bottom=0;right=0;editable=1;overflow=hidden;" vertex="1" parent="iqTfHni99q5GyG35R7go-70">
          <mxGeometry width="30" height="30" as="geometry" />
        </mxCell>
        <mxCell id="iqTfHni99q5GyG35R7go-72" value="EuropÃ¤isch" style="shape=partialRectangle;connectable=0;fillColor=none;top=0;left=0;bottom=0;right=0;align=left;spacingLeft=6;overflow=hidden;" vertex="1" parent="iqTfHni99q5GyG35R7go-70">
          <mxGeometry x="30" width="150" height="30" as="geometry" />
        </mxCell>
        <mxCell id="iqTfHni99q5GyG35R7go-73" value="" style="shape=partialRectangle;collapsible=0;dropTarget=0;pointerEvents=0;fillColor=none;top=0;left=0;bottom=0;right=0;points=[[0,0.5],[1,0.5]];portConstraint=eastwest;" vertex="1" parent="iqTfHni99q5GyG35R7go-41">
          <mxGeometry y="180" width="180" height="30" as="geometry" />
        </mxCell>
        <mxCell id="iqTfHni99q5GyG35R7go-74" value="" style="shape=partialRectangle;connectable=0;fillColor=none;top=0;left=0;bottom=0;right=0;editable=1;overflow=hidden;" vertex="1" parent="iqTfHni99q5GyG35R7go-73">
          <mxGeometry width="30" height="30" as="geometry" />
        </mxCell>
        <mxCell id="iqTfHni99q5GyG35R7go-75" value="Lateinamerikanisch" style="shape=partialRectangle;connectable=0;fillColor=none;top=0;left=0;bottom=0;right=0;align=left;spacingLeft=6;overflow=hidden;" vertex="1" parent="iqTfHni99q5GyG35R7go-73">
          <mxGeometry x="30" width="150" height="30" as="geometry" />
        </mxCell>
        <mxCell id="iqTfHni99q5GyG35R7go-55" value="Diet" style="shape=table;startSize=30;container=1;collapsible=1;childLayout=tableLayout;fixedRows=1;rowLines=0;fontStyle=1;align=center;resizeLast=1;" vertex="1" parent="1">
          <mxGeometry x="570" y="800" width="180" height="160" as="geometry" />
        </mxCell>
        <mxCell id="iqTfHni99q5GyG35R7go-56" value="" style="shape=partialRectangle;collapsible=0;dropTarget=0;pointerEvents=0;fillColor=none;top=0;left=0;bottom=1;right=0;points=[[0,0.5],[1,0.5]];portConstraint=eastwest;" vertex="1" parent="iqTfHni99q5GyG35R7go-55">
          <mxGeometry y="30" width="180" height="30" as="geometry" />
        </mxCell>
        <mxCell id="iqTfHni99q5GyG35R7go-57" value="PK" style="shape=partialRectangle;connectable=0;fillColor=none;top=0;left=0;bottom=0;right=0;fontStyle=1;overflow=hidden;" vertex="1" parent="iqTfHni99q5GyG35R7go-56">
          <mxGeometry width="30" height="30" as="geometry" />
        </mxCell>
        <mxCell id="iqTfHni99q5GyG35R7go-58" value="DietID" style="shape=partialRectangle;connectable=0;fillColor=none;top=0;left=0;bottom=0;right=0;align=left;spacingLeft=6;fontStyle=5;overflow=hidden;" vertex="1" parent="iqTfHni99q5GyG35R7go-56">
          <mxGeometry x="30" width="150" height="30" as="geometry" />
        </mxCell>
        <mxCell id="iqTfHni99q5GyG35R7go-59" value="" style="shape=partialRectangle;collapsible=0;dropTarget=0;pointerEvents=0;fillColor=none;top=0;left=0;bottom=0;right=0;points=[[0,0.5],[1,0.5]];portConstraint=eastwest;" vertex="1" parent="iqTfHni99q5GyG35R7go-55">
          <mxGeometry y="60" width="180" height="30" as="geometry" />
        </mxCell>
        <mxCell id="iqTfHni99q5GyG35R7go-60" value="" style="shape=partialRectangle;connectable=0;fillColor=none;top=0;left=0;bottom=0;right=0;editable=1;overflow=hidden;" vertex="1" parent="iqTfHni99q5GyG35R7go-59">
          <mxGeometry width="30" height="30" as="geometry" />
        </mxCell>
        <mxCell id="iqTfHni99q5GyG35R7go-61" value="Fleisch" style="shape=partialRectangle;connectable=0;fillColor=none;top=0;left=0;bottom=0;right=0;align=left;spacingLeft=6;overflow=hidden;" vertex="1" parent="iqTfHni99q5GyG35R7go-59">
          <mxGeometry x="30" width="150" height="30" as="geometry" />
        </mxCell>
        <mxCell id="iqTfHni99q5GyG35R7go-62" value="" style="shape=partialRectangle;collapsible=0;dropTarget=0;pointerEvents=0;fillColor=none;top=0;left=0;bottom=0;right=0;points=[[0,0.5],[1,0.5]];portConstraint=eastwest;" vertex="1" parent="iqTfHni99q5GyG35R7go-55">
          <mxGeometry y="90" width="180" height="30" as="geometry" />
        </mxCell>
        <mxCell id="iqTfHni99q5GyG35R7go-63" value="" style="shape=partialRectangle;connectable=0;fillColor=none;top=0;left=0;bottom=0;right=0;editable=1;overflow=hidden;" vertex="1" parent="iqTfHni99q5GyG35R7go-62">
          <mxGeometry width="30" height="30" as="geometry" />
        </mxCell>
        <mxCell id="iqTfHni99q5GyG35R7go-64" value="Vegetarisch" style="shape=partialRectangle;connectable=0;fillColor=none;top=0;left=0;bottom=0;right=0;align=left;spacingLeft=6;overflow=hidden;" vertex="1" parent="iqTfHni99q5GyG35R7go-62">
          <mxGeometry x="30" width="150" height="30" as="geometry" />
        </mxCell>
        <mxCell id="iqTfHni99q5GyG35R7go-65" value="" style="shape=partialRectangle;collapsible=0;dropTarget=0;pointerEvents=0;fillColor=none;top=0;left=0;bottom=0;right=0;points=[[0,0.5],[1,0.5]];portConstraint=eastwest;" vertex="1" parent="iqTfHni99q5GyG35R7go-55">
          <mxGeometry y="120" width="180" height="30" as="geometry" />
        </mxCell>
        <mxCell id="iqTfHni99q5GyG35R7go-66" value="" style="shape=partialRectangle;connectable=0;fillColor=none;top=0;left=0;bottom=0;right=0;editable=1;overflow=hidden;" vertex="1" parent="iqTfHni99q5GyG35R7go-65">
          <mxGeometry width="30" height="30" as="geometry" />
        </mxCell>
        <mxCell id="iqTfHni99q5GyG35R7go-67" value="Vegan" style="shape=partialRectangle;connectable=0;fillColor=none;top=0;left=0;bottom=0;right=0;align=left;spacingLeft=6;overflow=hidden;" vertex="1" parent="iqTfHni99q5GyG35R7go-65">
          <mxGeometry x="30" width="150" height="30" as="geometry" />
        </mxCell>
        <mxCell id="iqTfHni99q5GyG35R7go-94" value="" style="edgeStyle=entityRelationEdgeStyle;fontSize=12;html=1;endArrow=ERoneToMany;exitX=1;exitY=0.5;exitDx=0;exitDy=0;entryX=-0.006;entryY=-0.006;entryDx=0;entryDy=0;entryPerimeter=0;" edge="1" parent="1" source="iqTfHni99q5GyG35R7go-11" target="iqTfHni99q5GyG35R7go-31">
          <mxGeometry width="100" height="100" relative="1" as="geometry">
            <mxPoint x="680" y="640" as="sourcePoint" />
            <mxPoint x="510" y="370" as="targetPoint" />
          </mxGeometry>
        </mxCell>
        <mxCell id="iqTfHni99q5GyG35R7go-96" value="RestaurantDietID" style="shape=table;startSize=30;container=1;collapsible=1;childLayout=tableLayout;fixedRows=1;rowLines=0;fontStyle=1;align=center;resizeLast=1;" vertex="1" parent="1">
          <mxGeometry x="570" y="560" width="180" height="160" as="geometry" />
        </mxCell>
        <mxCell id="iqTfHni99q5GyG35R7go-97" value="" style="shape=partialRectangle;collapsible=0;dropTarget=0;pointerEvents=0;fillColor=none;top=0;left=0;bottom=0;right=0;points=[[0,0.5],[1,0.5]];portConstraint=eastwest;" vertex="1" parent="iqTfHni99q5GyG35R7go-96">
          <mxGeometry y="30" width="180" height="30" as="geometry" />
        </mxCell>
        <mxCell id="iqTfHni99q5GyG35R7go-98" value="PK,FK1" style="shape=partialRectangle;connectable=0;fillColor=none;top=0;left=0;bottom=0;right=0;fontStyle=1;overflow=hidden;" vertex="1" parent="iqTfHni99q5GyG35R7go-97">
          <mxGeometry width="60" height="30" as="geometry" />
        </mxCell>
        <mxCell id="iqTfHni99q5GyG35R7go-99" value="RestaurantID" style="shape=partialRectangle;connectable=0;fillColor=none;top=0;left=0;bottom=0;right=0;align=left;spacingLeft=6;fontStyle=5;overflow=hidden;" vertex="1" parent="iqTfHni99q5GyG35R7go-97">
          <mxGeometry x="60" width="120" height="30" as="geometry" />
        </mxCell>
        <mxCell id="iqTfHni99q5GyG35R7go-100" value="" style="shape=partialRectangle;collapsible=0;dropTarget=0;pointerEvents=0;fillColor=none;top=0;left=0;bottom=1;right=0;points=[[0,0.5],[1,0.5]];portConstraint=eastwest;" vertex="1" parent="iqTfHni99q5GyG35R7go-96">
          <mxGeometry y="60" width="180" height="30" as="geometry" />
        </mxCell>
        <mxCell id="iqTfHni99q5GyG35R7go-101" value="PK,FK2" style="shape=partialRectangle;connectable=0;fillColor=none;top=0;left=0;bottom=0;right=0;fontStyle=1;overflow=hidden;" vertex="1" parent="iqTfHni99q5GyG35R7go-100">
          <mxGeometry width="60" height="30" as="geometry" />
        </mxCell>
        <mxCell id="iqTfHni99q5GyG35R7go-102" value="DietID" style="shape=partialRectangle;connectable=0;fillColor=none;top=0;left=0;bottom=0;right=0;align=left;spacingLeft=6;fontStyle=5;overflow=hidden;" vertex="1" parent="iqTfHni99q5GyG35R7go-100">
          <mxGeometry x="60" width="120" height="30" as="geometry" />
        </mxCell>
        <mxCell id="iqTfHni99q5GyG35R7go-103" value="" style="shape=partialRectangle;collapsible=0;dropTarget=0;pointerEvents=0;fillColor=none;top=0;left=0;bottom=0;right=0;points=[[0,0.5],[1,0.5]];portConstraint=eastwest;" vertex="1" parent="iqTfHni99q5GyG35R7go-96">
          <mxGeometry y="90" width="180" height="30" as="geometry" />
        </mxCell>
        <mxCell id="iqTfHni99q5GyG35R7go-104" value="" style="shape=partialRectangle;connectable=0;fillColor=none;top=0;left=0;bottom=0;right=0;editable=1;overflow=hidden;" vertex="1" parent="iqTfHni99q5GyG35R7go-103">
          <mxGeometry width="60" height="30" as="geometry" />
        </mxCell>
        <mxCell id="iqTfHni99q5GyG35R7go-105" value="Row 3" style="shape=partialRectangle;connectable=0;fillColor=none;top=0;left=0;bottom=0;right=0;align=left;spacingLeft=6;overflow=hidden;" vertex="1" parent="iqTfHni99q5GyG35R7go-103">
          <mxGeometry x="60" width="120" height="30" as="geometry" />
        </mxCell>
        <mxCell id="iqTfHni99q5GyG35R7go-106" value="" style="shape=partialRectangle;collapsible=0;dropTarget=0;pointerEvents=0;fillColor=none;top=0;left=0;bottom=0;right=0;points=[[0,0.5],[1,0.5]];portConstraint=eastwest;" vertex="1" parent="iqTfHni99q5GyG35R7go-96">
          <mxGeometry y="120" width="180" height="30" as="geometry" />
        </mxCell>
        <mxCell id="iqTfHni99q5GyG35R7go-107" value="" style="shape=partialRectangle;connectable=0;fillColor=none;top=0;left=0;bottom=0;right=0;editable=1;overflow=hidden;" vertex="1" parent="iqTfHni99q5GyG35R7go-106">
          <mxGeometry width="60" height="30" as="geometry" />
        </mxCell>
        <mxCell id="iqTfHni99q5GyG35R7go-108" value="Row 4" style="shape=partialRectangle;connectable=0;fillColor=none;top=0;left=0;bottom=0;right=0;align=left;spacingLeft=6;overflow=hidden;" vertex="1" parent="iqTfHni99q5GyG35R7go-106">
          <mxGeometry x="60" width="120" height="30" as="geometry" />
        </mxCell>
        <mxCell id="iqTfHni99q5GyG35R7go-109" value="" style="edgeStyle=entityRelationEdgeStyle;fontSize=12;html=1;endArrow=ERmandOne;startArrow=ERmandOne;entryX=0;entryY=0.5;entryDx=0;entryDy=0;exitX=1;exitY=0.5;exitDx=0;exitDy=0;" edge="1" parent="1" source="iqTfHni99q5GyG35R7go-42" target="iqTfHni99q5GyG35R7go-31">
          <mxGeometry width="100" height="100" relative="1" as="geometry">
            <mxPoint x="450" y="620" as="sourcePoint" />
            <mxPoint x="550" y="520" as="targetPoint" />
          </mxGeometry>
        </mxCell>
        <mxCell id="iqTfHni99q5GyG35R7go-112" value="" style="edgeStyle=entityRelationEdgeStyle;fontSize=12;html=1;endArrow=ERoneToMany;exitX=1;exitY=0;exitDx=0;exitDy=0;entryX=0;entryY=0.5;entryDx=0;entryDy=0;" edge="1" parent="1" source="iqTfHni99q5GyG35R7go-3" target="iqTfHni99q5GyG35R7go-25">
          <mxGeometry width="100" height="100" relative="1" as="geometry">
            <mxPoint x="409.9999999999998" y="327" as="sourcePoint" />
            <mxPoint x="510" y="370" as="targetPoint" />
          </mxGeometry>
        </mxCell>
        <mxCell id="iqTfHni99q5GyG35R7go-117" value="" style="endArrow=classic;html=1;exitX=-0.013;exitY=0.043;exitDx=0;exitDy=0;exitPerimeter=0;entryX=1;entryY=1;entryDx=0;entryDy=0;" edge="1" parent="1" source="iqTfHni99q5GyG35R7go-25" target="iqTfHni99q5GyG35R7go-4">
          <mxGeometry width="50" height="50" relative="1" as="geometry">
            <mxPoint x="710" y="450" as="sourcePoint" />
            <mxPoint x="760" y="420" as="targetPoint" />
          </mxGeometry>
        </mxCell>
        <mxCell id="iqTfHni99q5GyG35R7go-119" value="" style="edgeStyle=entityRelationEdgeStyle;fontSize=12;html=1;endArrow=ERmany;entryX=1;entryY=0.5;entryDx=0;entryDy=0;" edge="1" parent="1" target="iqTfHni99q5GyG35R7go-100">
          <mxGeometry width="100" height="100" relative="1" as="geometry">
            <mxPoint x="750" y="810" as="sourcePoint" />
            <mxPoint x="850" y="710" as="targetPoint" />
          </mxGeometry>
        </mxCell>
        <mxCell id="iqTfHni99q5GyG35R7go-120" value="" style="edgeStyle=entityRelationEdgeStyle;fontSize=12;html=1;endArrow=ERmany;entryX=1;entryY=0.5;entryDx=0;entryDy=0;" edge="1" parent="1" source="iqTfHni99q5GyG35R7go-97" target="iqTfHni99q5GyG35R7go-25">
          <mxGeometry width="100" height="100" relative="1" as="geometry">
            <mxPoint x="760" y="600" as="sourcePoint" />
            <mxPoint x="550" y="530" as="targetPoint" />
          </mxGeometry>
        </mxCell>
      </root>
    </mxGraphModel>
  </diagram>
</mxfile>
